<mxfile host="app.diagrams.net" modified="2023-03-06T10:02:51.066Z" agent="5.0 (Windows NT 10.0; Win64; x64) AppleWebKit/537.36 (KHTML, like Gecko) Chrome/110.0.0.0 Safari/537.36" etag="GXhKqVVj982RaVHfP1Td" version="20.8.23" type="github">
  <diagram name="Page-1" id="97916047-d0de-89f5-080d-49f4d83e522f">
    <mxGraphModel dx="1793" dy="945" grid="0" gridSize="10" guides="1" tooltips="1" connect="1" arrows="1" fold="1" page="1" pageScale="1.5" pageWidth="4681" pageHeight="3300" background="none" math="0" shadow="0">
      <root>
        <mxCell id="0" />
        <mxCell id="1" parent="0" />
        <mxCell id="KwxauNoUihIvwHTF1U2A-198" value="" style="rounded=0;whiteSpace=wrap;html=1;shadow=0;fontSize=20;fillColor=#dae8fc;strokeColor=#6c8ebf;" parent="1" vertex="1">
          <mxGeometry x="330" y="1400" width="1220" height="770" as="geometry" />
        </mxCell>
        <mxCell id="3" value="拓扑编辑系统" style="rounded=1;shadow=0;fontStyle=1;fontSize=14;" parent="1" vertex="1">
          <mxGeometry x="710" y="330" width="220" height="40" as="geometry" />
        </mxCell>
        <mxCell id="KwxauNoUihIvwHTF1U2A-68" value="" style="edgeStyle=orthogonalEdgeStyle;rounded=0;jumpSize=1;orthogonalLoop=1;jettySize=auto;html=1;strokeColor=default;startFill=1;endFill=1;" parent="1" source="4" target="KwxauNoUihIvwHTF1U2A-67" edge="1">
          <mxGeometry relative="1" as="geometry" />
        </mxCell>
        <mxCell id="KwxauNoUihIvwHTF1U2A-70" value="" style="edgeStyle=orthogonalEdgeStyle;rounded=0;jumpSize=1;orthogonalLoop=1;jettySize=auto;html=1;strokeColor=default;startFill=1;endFill=1;entryX=0.5;entryY=0;entryDx=0;entryDy=0;" parent="1" source="4" target="KwxauNoUihIvwHTF1U2A-71" edge="1">
          <mxGeometry relative="1" as="geometry">
            <mxPoint x="470" y="610" as="targetPoint" />
          </mxGeometry>
        </mxCell>
        <mxCell id="4" value="节点配置" style="rounded=1;shadow=1;fontStyle=1;fontSize=14;" parent="1" vertex="1">
          <mxGeometry x="330" y="455.5" width="200" height="60" as="geometry" />
        </mxCell>
        <mxCell id="5" value="链路配置" style="rounded=1;shadow=1;fontStyle=1;fontSize=14;" parent="1" vertex="1">
          <mxGeometry x="580" y="455.5" width="200" height="60" as="geometry" />
        </mxCell>
        <mxCell id="6" value="端口配置" style="rounded=1;shadow=1;fontStyle=1;fontSize=14;" parent="1" vertex="1">
          <mxGeometry x="850" y="455.5" width="200" height="60" as="geometry" />
        </mxCell>
        <mxCell id="KwxauNoUihIvwHTF1U2A-131" value="" style="edgeStyle=orthogonalEdgeStyle;rounded=0;jumpSize=1;orthogonalLoop=1;jettySize=auto;html=1;strokeColor=default;startFill=1;endFill=1;" parent="1" source="KwxauNoUihIvwHTF1U2A-57" target="KwxauNoUihIvwHTF1U2A-128" edge="1">
          <mxGeometry relative="1" as="geometry" />
        </mxCell>
        <mxCell id="KwxauNoUihIvwHTF1U2A-135" style="edgeStyle=orthogonalEdgeStyle;rounded=0;jumpSize=1;orthogonalLoop=1;jettySize=auto;html=1;exitX=0.5;exitY=1;exitDx=0;exitDy=0;entryX=0.5;entryY=0;entryDx=0;entryDy=0;strokeColor=default;startFill=1;endFill=1;" parent="1" source="KwxauNoUihIvwHTF1U2A-57" target="KwxauNoUihIvwHTF1U2A-134" edge="1">
          <mxGeometry relative="1" as="geometry" />
        </mxCell>
        <mxCell id="KwxauNoUihIvwHTF1U2A-57" value="交互功能" style="rounded=1;shadow=1;fontStyle=1;fontSize=14;" parent="1" vertex="1">
          <mxGeometry x="1120" y="455.5" width="200" height="60" as="geometry" />
        </mxCell>
        <mxCell id="KwxauNoUihIvwHTF1U2A-63" value="" style="endArrow=classic;html=1;rounded=0;strokeColor=default;jumpSize=1;edgeStyle=orthogonalEdgeStyle;entryX=0.5;entryY=0;entryDx=0;entryDy=0;exitX=0.5;exitY=1;exitDx=0;exitDy=0;" parent="1" source="3" target="4" edge="1">
          <mxGeometry width="50" height="50" relative="1" as="geometry">
            <mxPoint x="769.94" y="390" as="sourcePoint" />
            <mxPoint x="719.94" y="440" as="targetPoint" />
          </mxGeometry>
        </mxCell>
        <mxCell id="KwxauNoUihIvwHTF1U2A-64" value="" style="endArrow=classic;html=1;rounded=0;strokeColor=default;jumpSize=1;entryX=0.5;entryY=0;entryDx=0;entryDy=0;exitX=0.5;exitY=1;exitDx=0;exitDy=0;edgeStyle=orthogonalEdgeStyle;" parent="1" source="3" target="5" edge="1">
          <mxGeometry width="50" height="50" relative="1" as="geometry">
            <mxPoint x="830" y="420" as="sourcePoint" />
            <mxPoint x="780" y="470" as="targetPoint" />
          </mxGeometry>
        </mxCell>
        <mxCell id="KwxauNoUihIvwHTF1U2A-65" value="" style="endArrow=classic;html=1;rounded=0;strokeColor=default;jumpSize=1;edgeStyle=orthogonalEdgeStyle;entryX=0.5;entryY=0;entryDx=0;entryDy=0;exitX=0.5;exitY=1;exitDx=0;exitDy=0;" parent="1" source="3" target="6" edge="1">
          <mxGeometry width="50" height="50" relative="1" as="geometry">
            <mxPoint x="960" y="360" as="sourcePoint" />
            <mxPoint x="910" y="410" as="targetPoint" />
          </mxGeometry>
        </mxCell>
        <mxCell id="KwxauNoUihIvwHTF1U2A-66" value="" style="endArrow=classic;html=1;rounded=0;strokeColor=default;jumpSize=1;entryX=0.5;entryY=0;entryDx=0;entryDy=0;exitX=0.5;exitY=1;exitDx=0;exitDy=0;edgeStyle=orthogonalEdgeStyle;" parent="1" source="3" target="KwxauNoUihIvwHTF1U2A-57" edge="1">
          <mxGeometry width="50" height="50" relative="1" as="geometry">
            <mxPoint x="1130" y="400" as="sourcePoint" />
            <mxPoint x="1080" y="450" as="targetPoint" />
          </mxGeometry>
        </mxCell>
        <mxCell id="KwxauNoUihIvwHTF1U2A-67" value="节&lt;br&gt;点&lt;br&gt;类&lt;br&gt;型&lt;br&gt;选&lt;br&gt;择" style="whiteSpace=wrap;html=1;fontSize=14;rounded=1;shadow=1;fontStyle=1;align=center;" parent="1" vertex="1">
          <mxGeometry x="320" y="600" width="50" height="130" as="geometry" />
        </mxCell>
        <mxCell id="KwxauNoUihIvwHTF1U2A-71" value="节&lt;br&gt;点&lt;br&gt;属&lt;br&gt;性&lt;br&gt;配&lt;br&gt;置" style="whiteSpace=wrap;html=1;fontSize=14;rounded=1;shadow=1;fontStyle=1;" parent="1" vertex="1">
          <mxGeometry x="405" y="600" width="50" height="130" as="geometry" />
        </mxCell>
        <mxCell id="KwxauNoUihIvwHTF1U2A-73" value="查&lt;br&gt;看&lt;br&gt;节&lt;br&gt;点&lt;br&gt;列&lt;br&gt;表" style="whiteSpace=wrap;html=1;fontSize=14;rounded=1;shadow=1;fontStyle=1;" parent="1" vertex="1">
          <mxGeometry x="490" y="600" width="50" height="130" as="geometry" />
        </mxCell>
        <mxCell id="KwxauNoUihIvwHTF1U2A-74" value="" style="edgeStyle=orthogonalEdgeStyle;rounded=0;jumpSize=1;orthogonalLoop=1;jettySize=auto;html=1;strokeColor=default;startFill=1;endFill=1;entryX=0.5;entryY=0;entryDx=0;entryDy=0;exitX=0.5;exitY=1;exitDx=0;exitDy=0;" parent="1" source="4" target="KwxauNoUihIvwHTF1U2A-73" edge="1">
          <mxGeometry relative="1" as="geometry">
            <mxPoint x="480" y="510" as="sourcePoint" />
            <mxPoint x="515" y="594.5" as="targetPoint" />
          </mxGeometry>
        </mxCell>
        <mxCell id="KwxauNoUihIvwHTF1U2A-101" value="" style="edgeStyle=orthogonalEdgeStyle;rounded=0;jumpSize=1;orthogonalLoop=1;jettySize=auto;html=1;strokeColor=default;startFill=1;endFill=1;" parent="1" target="KwxauNoUihIvwHTF1U2A-103" edge="1">
          <mxGeometry relative="1" as="geometry">
            <mxPoint x="680" y="550" as="sourcePoint" />
          </mxGeometry>
        </mxCell>
        <mxCell id="KwxauNoUihIvwHTF1U2A-102" value="" style="edgeStyle=orthogonalEdgeStyle;rounded=0;jumpSize=1;orthogonalLoop=1;jettySize=auto;html=1;strokeColor=default;startFill=1;endFill=1;entryX=0.5;entryY=0;entryDx=0;entryDy=0;exitX=0.5;exitY=1;exitDx=0;exitDy=0;" parent="1" source="5" target="KwxauNoUihIvwHTF1U2A-104" edge="1">
          <mxGeometry relative="1" as="geometry">
            <mxPoint x="680" y="550" as="sourcePoint" />
            <mxPoint x="720" y="644.5" as="targetPoint" />
          </mxGeometry>
        </mxCell>
        <mxCell id="KwxauNoUihIvwHTF1U2A-103" value="增&lt;br&gt;加&lt;br&gt;删&lt;br&gt;除&lt;br&gt;链&lt;br&gt;路" style="whiteSpace=wrap;html=1;fontSize=14;rounded=1;shadow=1;fontStyle=1;align=center;" parent="1" vertex="1">
          <mxGeometry x="580" y="600" width="50" height="130" as="geometry" />
        </mxCell>
        <mxCell id="KwxauNoUihIvwHTF1U2A-104" value="链&lt;br&gt;路&lt;br&gt;属&lt;br&gt;性&lt;br&gt;配&lt;br&gt;置" style="whiteSpace=wrap;html=1;fontSize=14;rounded=1;shadow=1;fontStyle=1;" parent="1" vertex="1">
          <mxGeometry x="655" y="600" width="50" height="130" as="geometry" />
        </mxCell>
        <mxCell id="KwxauNoUihIvwHTF1U2A-105" value="查&lt;br&gt;看&lt;br&gt;链&lt;br&gt;路&lt;br&gt;列&lt;br&gt;表" style="whiteSpace=wrap;html=1;fontSize=14;rounded=1;shadow=1;fontStyle=1;" parent="1" vertex="1">
          <mxGeometry x="730" y="600" width="50" height="130" as="geometry" />
        </mxCell>
        <mxCell id="KwxauNoUihIvwHTF1U2A-106" value="" style="edgeStyle=orthogonalEdgeStyle;rounded=0;jumpSize=1;orthogonalLoop=1;jettySize=auto;html=1;strokeColor=default;startFill=1;endFill=1;entryX=0.5;entryY=0;entryDx=0;entryDy=0;exitX=0.5;exitY=1;exitDx=0;exitDy=0;" parent="1" target="KwxauNoUihIvwHTF1U2A-105" edge="1">
          <mxGeometry relative="1" as="geometry">
            <mxPoint x="680" y="550" as="sourcePoint" />
            <mxPoint x="765" y="629" as="targetPoint" />
          </mxGeometry>
        </mxCell>
        <mxCell id="KwxauNoUihIvwHTF1U2A-119" value="" style="edgeStyle=orthogonalEdgeStyle;rounded=0;jumpSize=1;orthogonalLoop=1;jettySize=auto;html=1;strokeColor=default;startFill=1;endFill=1;exitX=0.5;exitY=1;exitDx=0;exitDy=0;" parent="1" source="6" target="KwxauNoUihIvwHTF1U2A-121" edge="1">
          <mxGeometry relative="1" as="geometry">
            <mxPoint x="950" y="560" as="sourcePoint" />
          </mxGeometry>
        </mxCell>
        <mxCell id="KwxauNoUihIvwHTF1U2A-120" value="" style="edgeStyle=orthogonalEdgeStyle;rounded=0;jumpSize=1;orthogonalLoop=1;jettySize=auto;html=1;strokeColor=default;startFill=1;endFill=1;entryX=0.5;entryY=0;entryDx=0;entryDy=0;exitX=0.5;exitY=1;exitDx=0;exitDy=0;" parent="1" source="6" target="KwxauNoUihIvwHTF1U2A-122" edge="1">
          <mxGeometry relative="1" as="geometry">
            <mxPoint x="940" y="550" as="sourcePoint" />
            <mxPoint x="980" y="644.5" as="targetPoint" />
          </mxGeometry>
        </mxCell>
        <mxCell id="KwxauNoUihIvwHTF1U2A-121" value="节&lt;br&gt;点&lt;br&gt;增&lt;br&gt;加&lt;br&gt;端&lt;br&gt;口" style="whiteSpace=wrap;html=1;fontSize=14;rounded=1;shadow=1;fontStyle=1;align=center;" parent="1" vertex="1">
          <mxGeometry x="870" y="600" width="50" height="130" as="geometry" />
        </mxCell>
        <mxCell id="KwxauNoUihIvwHTF1U2A-122" value="端&lt;br&gt;口&lt;br&gt;属&lt;br&gt;性&lt;br&gt;配&lt;br&gt;置" style="whiteSpace=wrap;html=1;fontSize=14;rounded=1;shadow=1;fontStyle=1;" parent="1" vertex="1">
          <mxGeometry x="970" y="600" width="50" height="130" as="geometry" />
        </mxCell>
        <mxCell id="KwxauNoUihIvwHTF1U2A-125" value="" style="edgeStyle=orthogonalEdgeStyle;rounded=0;jumpSize=1;orthogonalLoop=1;jettySize=auto;html=1;strokeColor=default;startFill=1;endFill=1;" parent="1" target="KwxauNoUihIvwHTF1U2A-127" edge="1">
          <mxGeometry relative="1" as="geometry">
            <mxPoint x="1230" y="557.75" as="sourcePoint" />
          </mxGeometry>
        </mxCell>
        <mxCell id="KwxauNoUihIvwHTF1U2A-127" value="导&lt;br&gt;入&lt;br&gt;拓&lt;br&gt;扑&lt;br&gt;数&lt;br&gt;据" style="whiteSpace=wrap;html=1;fontSize=14;rounded=1;shadow=1;fontStyle=1;align=center;" parent="1" vertex="1">
          <mxGeometry x="1080" y="600" width="50" height="130" as="geometry" />
        </mxCell>
        <mxCell id="KwxauNoUihIvwHTF1U2A-128" value="导&lt;br&gt;出&lt;br&gt;拓&lt;br&gt;扑&lt;br&gt;数&lt;br&gt;据" style="whiteSpace=wrap;html=1;fontSize=14;rounded=1;shadow=1;fontStyle=1;arcSize=0;" parent="1" vertex="1">
          <mxGeometry x="1150" y="600" width="50" height="130" as="geometry" />
        </mxCell>
        <mxCell id="KwxauNoUihIvwHTF1U2A-129" value="导&lt;br&gt;出&lt;br&gt;为&lt;br&gt;图&lt;br&gt;片" style="whiteSpace=wrap;html=1;fontSize=14;rounded=1;shadow=1;fontStyle=1;" parent="1" vertex="1">
          <mxGeometry x="1310" y="600" width="50" height="130" as="geometry" />
        </mxCell>
        <mxCell id="KwxauNoUihIvwHTF1U2A-130" value="" style="edgeStyle=orthogonalEdgeStyle;rounded=0;jumpSize=1;orthogonalLoop=1;jettySize=auto;html=1;strokeColor=default;startFill=1;endFill=1;entryX=0.5;entryY=0;entryDx=0;entryDy=0;exitX=0.5;exitY=1;exitDx=0;exitDy=0;" parent="1" target="KwxauNoUihIvwHTF1U2A-129" edge="1">
          <mxGeometry relative="1" as="geometry">
            <mxPoint x="1230" y="557.75" as="sourcePoint" />
            <mxPoint x="1315" y="636.75" as="targetPoint" />
          </mxGeometry>
        </mxCell>
        <mxCell id="KwxauNoUihIvwHTF1U2A-134" value="小&lt;br&gt;地&lt;br&gt;图&lt;br&gt;功&lt;br&gt;能" style="whiteSpace=wrap;html=1;fontSize=14;rounded=1;shadow=1;fontStyle=1;" parent="1" vertex="1">
          <mxGeometry x="1230" y="600" width="50" height="130" as="geometry" />
        </mxCell>
        <mxCell id="KwxauNoUihIvwHTF1U2A-136" value="" style="rounded=0;whiteSpace=wrap;html=1;" parent="1" vertex="1">
          <mxGeometry x="340" y="820" width="990" height="400" as="geometry" />
        </mxCell>
        <mxCell id="KwxauNoUihIvwHTF1U2A-137" value="" style="endArrow=none;dashed=1;html=1;rounded=0;exitX=0;exitY=0.25;exitDx=0;exitDy=0;entryX=1;entryY=0.25;entryDx=0;entryDy=0;" parent="1" source="KwxauNoUihIvwHTF1U2A-136" target="KwxauNoUihIvwHTF1U2A-136" edge="1">
          <mxGeometry width="50" height="50" relative="1" as="geometry">
            <mxPoint x="320" y="900" as="sourcePoint" />
            <mxPoint x="1350" y="880" as="targetPoint" />
          </mxGeometry>
        </mxCell>
        <mxCell id="KwxauNoUihIvwHTF1U2A-138" value="UI层&lt;br&gt;" style="text;html=1;strokeColor=none;fillColor=none;align=center;verticalAlign=middle;whiteSpace=wrap;rounded=0;" parent="1" vertex="1">
          <mxGeometry x="370" y="855" width="60" height="30" as="geometry" />
        </mxCell>
        <mxCell id="KwxauNoUihIvwHTF1U2A-139" value="拓扑展示" style="rounded=0;whiteSpace=wrap;html=1;" parent="1" vertex="1">
          <mxGeometry x="446" y="835" width="170" height="70" as="geometry" />
        </mxCell>
        <mxCell id="KwxauNoUihIvwHTF1U2A-140" value="拓扑交互" style="rounded=0;whiteSpace=wrap;html=1;" parent="1" vertex="1">
          <mxGeometry x="645" y="835" width="139" height="64" as="geometry" />
        </mxCell>
        <mxCell id="KwxauNoUihIvwHTF1U2A-141" value="Kubernetes管理" style="rounded=0;whiteSpace=wrap;html=1;" parent="1" vertex="1">
          <mxGeometry x="808.25" y="835" width="128.5" height="69" as="geometry" />
        </mxCell>
        <mxCell id="KwxauNoUihIvwHTF1U2A-142" value="" style="endArrow=none;dashed=1;html=1;rounded=0;exitX=0;exitY=0.25;exitDx=0;exitDy=0;" parent="1" edge="1">
          <mxGeometry width="50" height="50" relative="1" as="geometry">
            <mxPoint x="340" y="1120" as="sourcePoint" />
            <mxPoint x="1324" y="1120" as="targetPoint" />
          </mxGeometry>
        </mxCell>
        <mxCell id="KwxauNoUihIvwHTF1U2A-143" value="业务层" style="text;html=1;strokeColor=none;fillColor=none;align=center;verticalAlign=middle;whiteSpace=wrap;rounded=0;" parent="1" vertex="1">
          <mxGeometry x="350" y="1000" width="60" height="30" as="geometry" />
        </mxCell>
        <mxCell id="KwxauNoUihIvwHTF1U2A-144" value="" style="rounded=0;whiteSpace=wrap;html=1;" parent="1" vertex="1">
          <mxGeometry x="409" y="967.38" width="233" height="105.25" as="geometry" />
        </mxCell>
        <mxCell id="KwxauNoUihIvwHTF1U2A-145" value="&lt;br&gt;&lt;span style=&quot;color: rgb(0, 0, 0); font-family: Helvetica; font-size: 12px; font-style: normal; font-variant-ligatures: normal; font-variant-caps: normal; font-weight: 400; letter-spacing: normal; orphans: 2; text-align: center; text-indent: 0px; text-transform: none; widows: 2; word-spacing: 0px; -webkit-text-stroke-width: 0px; background-color: rgb(248, 249, 250); text-decoration-thickness: initial; text-decoration-style: initial; text-decoration-color: initial; float: none; display: inline !important;&quot;&gt;可视化拓扑布局模块&lt;/span&gt;&lt;br&gt;" style="text;html=1;strokeColor=none;fillColor=none;align=center;verticalAlign=middle;whiteSpace=wrap;rounded=0;" parent="1" vertex="1">
          <mxGeometry x="464" y="975.13" width="110" height="10" as="geometry" />
        </mxCell>
        <mxCell id="KwxauNoUihIvwHTF1U2A-146" value="力导引层级布局算法" style="rounded=0;whiteSpace=wrap;html=1;" parent="1" vertex="1">
          <mxGeometry x="414" y="1019.63" width="120" height="30.5" as="geometry" />
        </mxCell>
        <mxCell id="KwxauNoUihIvwHTF1U2A-147" value="双平面布局算法" style="rounded=0;whiteSpace=wrap;html=1;" parent="1" vertex="1">
          <mxGeometry x="544" y="1014.63" width="87" height="36.25" as="geometry" />
        </mxCell>
        <mxCell id="KwxauNoUihIvwHTF1U2A-148" value="" style="rounded=0;whiteSpace=wrap;html=1;" parent="1" vertex="1">
          <mxGeometry x="649" y="951.26" width="275" height="137.5" as="geometry" />
        </mxCell>
        <mxCell id="KwxauNoUihIvwHTF1U2A-149" value="拓扑交互控制模块" style="text;html=1;strokeColor=none;fillColor=none;align=center;verticalAlign=middle;whiteSpace=wrap;rounded=0;" parent="1" vertex="1">
          <mxGeometry x="724" y="966.26" width="110" height="22" as="geometry" />
        </mxCell>
        <mxCell id="KwxauNoUihIvwHTF1U2A-150" value="节点配置" style="rounded=0;whiteSpace=wrap;html=1;" parent="1" vertex="1">
          <mxGeometry x="664" y="999.76" width="70" height="32" as="geometry" />
        </mxCell>
        <mxCell id="KwxauNoUihIvwHTF1U2A-151" value="链路配置" style="rounded=0;whiteSpace=wrap;html=1;" parent="1" vertex="1">
          <mxGeometry x="751.5" y="999.76" width="70" height="30" as="geometry" />
        </mxCell>
        <mxCell id="KwxauNoUihIvwHTF1U2A-152" value="端口配置" style="rounded=0;whiteSpace=wrap;html=1;" parent="1" vertex="1">
          <mxGeometry x="834" y="999.26" width="80" height="30" as="geometry" />
        </mxCell>
        <mxCell id="KwxauNoUihIvwHTF1U2A-153" value="拓扑数据导入" style="rounded=0;whiteSpace=wrap;html=1;" parent="1" vertex="1">
          <mxGeometry x="664" y="1038.76" width="100" height="39" as="geometry" />
        </mxCell>
        <mxCell id="KwxauNoUihIvwHTF1U2A-154" value="拓扑数据导出" style="rounded=0;whiteSpace=wrap;html=1;" parent="1" vertex="1">
          <mxGeometry x="784" y="1038.76" width="120" height="39" as="geometry" />
        </mxCell>
        <mxCell id="KwxauNoUihIvwHTF1U2A-155" value="" style="rounded=0;whiteSpace=wrap;html=1;" parent="1" vertex="1">
          <mxGeometry x="935" y="954" width="155" height="132" as="geometry" />
        </mxCell>
        <mxCell id="KwxauNoUihIvwHTF1U2A-156" value="namespace管理" style="rounded=0;whiteSpace=wrap;html=1;" parent="1" vertex="1">
          <mxGeometry x="957" y="985.13" width="98" height="25.74" as="geometry" />
        </mxCell>
        <mxCell id="KwxauNoUihIvwHTF1U2A-157" value="Kubernetes管理模块" style="text;html=1;strokeColor=none;fillColor=none;align=center;verticalAlign=middle;whiteSpace=wrap;rounded=0;" parent="1" vertex="1">
          <mxGeometry x="952" y="959" width="120" height="19" as="geometry" />
        </mxCell>
        <mxCell id="KwxauNoUihIvwHTF1U2A-158" value="pod管理" style="rounded=0;whiteSpace=wrap;html=1;" parent="1" vertex="1">
          <mxGeometry x="954.25" y="1018" width="109" height="25.24" as="geometry" />
        </mxCell>
        <mxCell id="KwxauNoUihIvwHTF1U2A-159" value="数据层" style="text;html=1;strokeColor=none;fillColor=none;align=center;verticalAlign=middle;whiteSpace=wrap;rounded=0;" parent="1" vertex="1">
          <mxGeometry x="350" y="1160" width="60" height="30" as="geometry" />
        </mxCell>
        <mxCell id="KwxauNoUihIvwHTF1U2A-160" value="Mysql" style="rounded=0;whiteSpace=wrap;html=1;" parent="1" vertex="1">
          <mxGeometry x="490" y="1140" width="180" height="70" as="geometry" />
        </mxCell>
        <mxCell id="KwxauNoUihIvwHTF1U2A-161" value="kubernetes" style="rounded=0;whiteSpace=wrap;html=1;" parent="1" vertex="1">
          <mxGeometry x="737" y="1140" width="190" height="70" as="geometry" />
        </mxCell>
        <mxCell id="KwxauNoUihIvwHTF1U2A-162" value="webTerminal管理" style="rounded=0;whiteSpace=wrap;html=1;" parent="1" vertex="1">
          <mxGeometry x="954.25" y="1050.13" width="110" height="33" as="geometry" />
        </mxCell>
        <mxCell id="KwxauNoUihIvwHTF1U2A-174" value="技术框架图" style="text;html=1;strokeColor=none;fillColor=none;align=center;verticalAlign=middle;whiteSpace=wrap;rounded=0;shadow=0;fontSize=20;" parent="1" vertex="1">
          <mxGeometry x="160" y="1430" width="120" height="30" as="geometry" />
        </mxCell>
        <mxCell id="KwxauNoUihIvwHTF1U2A-189" value="" style="rounded=0;whiteSpace=wrap;html=1;shadow=0;fontSize=20;fillColor=#f8cecc;strokeColor=#b85450;" parent="1" vertex="1">
          <mxGeometry x="460" y="1440" width="1000" height="220" as="geometry" />
        </mxCell>
        <mxCell id="KwxauNoUihIvwHTF1U2A-163" value="" style="rounded=0;whiteSpace=wrap;html=1;shadow=0;fontStyle=1;fillColor=#f8cecc;strokeColor=#b85450;" parent="1" vertex="1">
          <mxGeometry x="460" y="1830" width="1000" height="120" as="geometry" />
        </mxCell>
        <mxCell id="KwxauNoUihIvwHTF1U2A-170" value="Golang" style="rounded=0;whiteSpace=wrap;html=1;shadow=0;fontSize=20;fillColor=#ffe6cc;strokeColor=#d79b00;" parent="1" vertex="1">
          <mxGeometry x="550" y="1860" width="120" height="60" as="geometry" />
        </mxCell>
        <mxCell id="KwxauNoUihIvwHTF1U2A-171" value="Gin" style="rounded=0;whiteSpace=wrap;html=1;shadow=0;fontSize=20;fillColor=#ffe6cc;strokeColor=#d79b00;" parent="1" vertex="1">
          <mxGeometry x="812.5" y="1860" width="120" height="60" as="geometry" />
        </mxCell>
        <mxCell id="KwxauNoUihIvwHTF1U2A-184" value="展示层" style="text;html=1;strokeColor=none;fillColor=none;align=center;verticalAlign=middle;whiteSpace=wrap;rounded=0;shadow=0;fontSize=20;" parent="1" vertex="1">
          <mxGeometry x="345" y="1530" width="95" height="35" as="geometry" />
        </mxCell>
        <mxCell id="KwxauNoUihIvwHTF1U2A-165" value="D3" style="rounded=1;whiteSpace=wrap;html=1;shadow=0;fontSize=20;fillColor=#dae8fc;strokeColor=#6c8ebf;" parent="1" vertex="1">
          <mxGeometry x="680" y="1470" width="120" height="60" as="geometry" />
        </mxCell>
        <mxCell id="KwxauNoUihIvwHTF1U2A-166" value="Three.js" style="rounded=1;whiteSpace=wrap;html=1;shadow=0;fontSize=20;fillColor=#dae8fc;strokeColor=#6c8ebf;" parent="1" vertex="1">
          <mxGeometry x="850" y="1470" width="120" height="60" as="geometry" />
        </mxCell>
        <mxCell id="KwxauNoUihIvwHTF1U2A-167" value="AntV-X6" style="rounded=1;whiteSpace=wrap;html=1;shadow=0;fontSize=20;fillColor=#dae8fc;strokeColor=#6c8ebf;" parent="1" vertex="1">
          <mxGeometry x="1030" y="1470" width="120" height="60" as="geometry" />
        </mxCell>
        <mxCell id="KwxauNoUihIvwHTF1U2A-175" value="&lt;span style=&quot;font-size: 20px;&quot;&gt;HTML&lt;/span&gt;" style="rounded=1;whiteSpace=wrap;html=1;shadow=0;fillColor=#dae8fc;strokeColor=#6c8ebf;" parent="1" vertex="1">
          <mxGeometry x="580" y="1560" width="120" height="60" as="geometry" />
        </mxCell>
        <mxCell id="KwxauNoUihIvwHTF1U2A-176" value="&lt;font style=&quot;font-size: 20px;&quot;&gt;CSS&lt;/font&gt;" style="rounded=1;whiteSpace=wrap;html=1;shadow=0;fillColor=#dae8fc;strokeColor=#6c8ebf;" parent="1" vertex="1">
          <mxGeometry x="850" y="1560" width="120" height="60" as="geometry" />
        </mxCell>
        <mxCell id="KwxauNoUihIvwHTF1U2A-177" value="&lt;font style=&quot;font-size: 20px;&quot;&gt;JavaScript&lt;/font&gt;" style="rounded=1;whiteSpace=wrap;html=1;shadow=0;fillColor=#dae8fc;strokeColor=#6c8ebf;" parent="1" vertex="1">
          <mxGeometry x="1135" y="1560" width="120" height="60" as="geometry" />
        </mxCell>
        <mxCell id="KwxauNoUihIvwHTF1U2A-180" value="Xterm" style="rounded=1;whiteSpace=wrap;html=1;shadow=0;fontSize=20;fillColor=#dae8fc;strokeColor=#6c8ebf;" parent="1" vertex="1">
          <mxGeometry x="1220" y="1470" width="120" height="60" as="geometry" />
        </mxCell>
        <mxCell id="KwxauNoUihIvwHTF1U2A-164" value="&lt;font style=&quot;font-size: 20px;&quot;&gt;Vue&lt;/font&gt;" style="rounded=1;whiteSpace=wrap;html=1;shadow=0;fillColor=#dae8fc;strokeColor=#6c8ebf;" parent="1" vertex="1">
          <mxGeometry x="510" y="1470" width="120" height="60" as="geometry" />
        </mxCell>
        <mxCell id="KwxauNoUihIvwHTF1U2A-190" value="" style="rounded=0;whiteSpace=wrap;html=1;shadow=0;fontSize=20;fillColor=#f8cecc;strokeColor=#b85450;" parent="1" vertex="1">
          <mxGeometry x="460" y="1700" width="1000" height="90" as="geometry" />
        </mxCell>
        <mxCell id="KwxauNoUihIvwHTF1U2A-168" value="Axios" style="rounded=0;whiteSpace=wrap;html=1;shadow=0;fontSize=20;fillColor=#d5e8d4;strokeColor=#82b366;" parent="1" vertex="1">
          <mxGeometry x="620" y="1720" width="120" height="60" as="geometry" />
        </mxCell>
        <mxCell id="KwxauNoUihIvwHTF1U2A-179" value="RESTful" style="rounded=0;whiteSpace=wrap;html=1;shadow=0;fontSize=20;fillColor=#d5e8d4;strokeColor=#82b366;" parent="1" vertex="1">
          <mxGeometry x="1100" y="1720" width="120" height="60" as="geometry" />
        </mxCell>
        <mxCell id="KwxauNoUihIvwHTF1U2A-191" value="消息传输" style="text;whiteSpace=wrap;html=1;fontSize=20;" parent="1" vertex="1">
          <mxGeometry x="360" y="1730" width="105" height="40" as="geometry" />
        </mxCell>
        <mxCell id="KwxauNoUihIvwHTF1U2A-192" value="服务层" style="text;whiteSpace=wrap;html=1;fontSize=20;" parent="1" vertex="1">
          <mxGeometry x="370" y="1870" width="105" height="40" as="geometry" />
        </mxCell>
        <mxCell id="KwxauNoUihIvwHTF1U2A-194" value="" style="rounded=0;whiteSpace=wrap;html=1;shadow=0;fontSize=20;fillColor=#f8cecc;strokeColor=#b85450;" parent="1" vertex="1">
          <mxGeometry x="460" y="2000" width="1000" height="120" as="geometry" />
        </mxCell>
        <mxCell id="KwxauNoUihIvwHTF1U2A-173" value="Kubernetes" style="rounded=0;whiteSpace=wrap;html=1;shadow=0;fontSize=20;fillColor=#e1d5e7;strokeColor=#9673a6;" parent="1" vertex="1">
          <mxGeometry x="935" y="2040" width="120" height="60" as="geometry" />
        </mxCell>
        <mxCell id="KwxauNoUihIvwHTF1U2A-182" value="Ubuntu" style="rounded=0;whiteSpace=wrap;html=1;shadow=0;fontSize=20;fillColor=#e1d5e7;strokeColor=#9673a6;" parent="1" vertex="1">
          <mxGeometry x="1130" y="2040" width="120" height="60" as="geometry" />
        </mxCell>
        <mxCell id="KwxauNoUihIvwHTF1U2A-183" value="Shell&amp;nbsp;" style="rounded=0;whiteSpace=wrap;html=1;shadow=0;fontSize=20;fillColor=#e1d5e7;strokeColor=#9673a6;" parent="1" vertex="1">
          <mxGeometry x="1300" y="2040" width="120" height="60" as="geometry" />
        </mxCell>
        <mxCell id="KwxauNoUihIvwHTF1U2A-193" value="Mysql" style="rounded=0;whiteSpace=wrap;html=1;shadow=0;fontSize=20;fillColor=#e1d5e7;strokeColor=#9673a6;" parent="1" vertex="1">
          <mxGeometry x="550" y="2040" width="120" height="60" as="geometry" />
        </mxCell>
        <mxCell id="KwxauNoUihIvwHTF1U2A-195" value="支撑层" style="text;html=1;strokeColor=none;fillColor=none;align=center;verticalAlign=middle;whiteSpace=wrap;rounded=0;shadow=0;fontSize=20;" parent="1" vertex="1">
          <mxGeometry x="360" y="2045" width="80" height="30" as="geometry" />
        </mxCell>
        <mxCell id="KwxauNoUihIvwHTF1U2A-172" value="WebSocket" style="rounded=0;whiteSpace=wrap;html=1;shadow=0;fontSize=20;fillColor=#d5e8d4;strokeColor=#82b366;" parent="1" vertex="1">
          <mxGeometry x="870" y="1720" width="120" height="60" as="geometry" />
        </mxCell>
        <mxCell id="KwxauNoUihIvwHTF1U2A-199" value="Gorm" style="rounded=0;whiteSpace=wrap;html=1;shadow=0;fontSize=20;fillColor=#ffe6cc;strokeColor=#d79b00;" parent="1" vertex="1">
          <mxGeometry x="1030" y="1860" width="120" height="60" as="geometry" />
        </mxCell>
        <mxCell id="KwxauNoUihIvwHTF1U2A-201" value="etcd" style="rounded=0;whiteSpace=wrap;html=1;shadow=0;fontSize=20;fillColor=#e1d5e7;strokeColor=#9673a6;" parent="1" vertex="1">
          <mxGeometry x="750" y="2040" width="120" height="60" as="geometry" />
        </mxCell>
        <mxCell id="KwxauNoUihIvwHTF1U2A-203" value="" style="rounded=0;whiteSpace=wrap;html=1;shadow=0;fontSize=20;fillColor=#FFFFFF;" parent="1" vertex="1">
          <mxGeometry x="360" y="2380" width="1420" height="750" as="geometry" />
        </mxCell>
        <mxCell id="KwxauNoUihIvwHTF1U2A-204" value="fronted" style="rounded=0;whiteSpace=wrap;html=1;shadow=0;fontSize=20;fillColor=#FFFFFF;" parent="1" vertex="1">
          <mxGeometry x="400" y="2415" width="120" height="60" as="geometry" />
        </mxCell>
        <mxCell id="KwxauNoUihIvwHTF1U2A-211" value="" style="edgeStyle=orthogonalEdgeStyle;rounded=0;jumpSize=1;orthogonalLoop=1;jettySize=auto;html=1;strokeColor=default;fontSize=20;startFill=1;endFill=1;" parent="1" source="KwxauNoUihIvwHTF1U2A-205" target="KwxauNoUihIvwHTF1U2A-210" edge="1">
          <mxGeometry relative="1" as="geometry" />
        </mxCell>
        <mxCell id="KwxauNoUihIvwHTF1U2A-205" value="nginx" style="whiteSpace=wrap;html=1;fontSize=20;fillColor=#FFFFFF;rounded=0;shadow=0;" parent="1" vertex="1">
          <mxGeometry x="620" y="2415" width="120" height="60" as="geometry" />
        </mxCell>
        <mxCell id="KwxauNoUihIvwHTF1U2A-206" value="" style="endArrow=classic;html=1;rounded=0;strokeColor=default;fontSize=20;jumpSize=1;entryX=0;entryY=0.5;entryDx=0;entryDy=0;" parent="1" source="KwxauNoUihIvwHTF1U2A-204" target="KwxauNoUihIvwHTF1U2A-205" edge="1">
          <mxGeometry relative="1" as="geometry">
            <mxPoint x="580" y="2450" as="sourcePoint" />
            <mxPoint x="680" y="2450" as="targetPoint" />
          </mxGeometry>
        </mxCell>
        <mxCell id="KwxauNoUihIvwHTF1U2A-207" value="http" style="edgeLabel;resizable=0;html=1;align=center;verticalAlign=middle;rounded=1;shadow=0;fontSize=20;fillColor=#FFFFFF;" parent="KwxauNoUihIvwHTF1U2A-206" connectable="0" vertex="1">
          <mxGeometry relative="1" as="geometry" />
        </mxCell>
        <mxCell id="KwxauNoUihIvwHTF1U2A-209" value="clinet-go" style="rounded=0;whiteSpace=wrap;html=1;shadow=0;fontSize=20;fillColor=#ffe6cc;strokeColor=#d79b00;" parent="1" vertex="1">
          <mxGeometry x="1240" y="1860" width="120" height="60" as="geometry" />
        </mxCell>
        <mxCell id="KwxauNoUihIvwHTF1U2A-210" value="golang api&amp;nbsp;" style="whiteSpace=wrap;html=1;fontSize=20;fillColor=#FFFFFF;rounded=0;shadow=0;" parent="1" vertex="1">
          <mxGeometry x="800" y="2415" width="120" height="60" as="geometry" />
        </mxCell>
        <mxCell id="KwxauNoUihIvwHTF1U2A-228" value="etcd cluster" style="whiteSpace=wrap;html=1;fontSize=20;fillColor=#FFFFFF;rounded=0;shadow=0;" parent="1" vertex="1">
          <mxGeometry x="747.5" y="3050" width="220" height="70" as="geometry" />
        </mxCell>
        <mxCell id="KwxauNoUihIvwHTF1U2A-230" value="" style="rounded=0;whiteSpace=wrap;html=1;shadow=0;fontSize=20;fillColor=#FFFFFF;" parent="1" vertex="1">
          <mxGeometry x="582.5" y="2610" width="552.5" height="380" as="geometry" />
        </mxCell>
        <mxCell id="KwxauNoUihIvwHTF1U2A-223" value="" style="whiteSpace=wrap;html=1;fontSize=20;fillColor=#FFFFFF;rounded=0;shadow=0;" parent="1" vertex="1">
          <mxGeometry x="670" y="2890" width="380" height="80" as="geometry" />
        </mxCell>
        <mxCell id="KwxauNoUihIvwHTF1U2A-225" value="Pod" style="rounded=0;whiteSpace=wrap;html=1;shadow=0;fontSize=20;fillColor=#FFFFFF;" parent="1" vertex="1">
          <mxGeometry x="685" y="2910" width="95" height="40" as="geometry" />
        </mxCell>
        <mxCell id="KwxauNoUihIvwHTF1U2A-226" value="Namespace" style="rounded=0;whiteSpace=wrap;html=1;shadow=0;fontSize=20;fillColor=#FFFFFF;" parent="1" vertex="1">
          <mxGeometry x="795" y="2910" width="125" height="40" as="geometry" />
        </mxCell>
        <mxCell id="KwxauNoUihIvwHTF1U2A-227" value="···" style="rounded=0;whiteSpace=wrap;html=1;shadow=0;fontSize=20;fillColor=#FFFFFF;" parent="1" vertex="1">
          <mxGeometry x="935" y="2910" width="95" height="40" as="geometry" />
        </mxCell>
        <mxCell id="KwxauNoUihIvwHTF1U2A-236" style="edgeStyle=orthogonalEdgeStyle;rounded=0;jumpSize=1;orthogonalLoop=1;jettySize=auto;html=1;exitX=0.5;exitY=1;exitDx=0;exitDy=0;strokeColor=default;fontSize=20;startFill=1;endFill=1;" parent="1" source="KwxauNoUihIvwHTF1U2A-217" target="KwxauNoUihIvwHTF1U2A-218" edge="1">
          <mxGeometry relative="1" as="geometry" />
        </mxCell>
        <mxCell id="KwxauNoUihIvwHTF1U2A-217" value="Authentication" style="rounded=0;whiteSpace=wrap;html=1;shadow=0;fontSize=20;fillColor=#FFFFFF;" parent="1" vertex="1">
          <mxGeometry x="740" y="2660" width="240" height="40" as="geometry" />
        </mxCell>
        <mxCell id="KwxauNoUihIvwHTF1U2A-235" style="edgeStyle=orthogonalEdgeStyle;rounded=0;jumpSize=1;orthogonalLoop=1;jettySize=auto;html=1;exitX=0.5;exitY=1;exitDx=0;exitDy=0;strokeColor=default;fontSize=20;startFill=1;endFill=1;" parent="1" source="KwxauNoUihIvwHTF1U2A-218" target="KwxauNoUihIvwHTF1U2A-220" edge="1">
          <mxGeometry relative="1" as="geometry" />
        </mxCell>
        <mxCell id="KwxauNoUihIvwHTF1U2A-218" value="Authorization" style="rounded=0;whiteSpace=wrap;html=1;shadow=0;fontSize=20;fillColor=#FFFFFF;" parent="1" vertex="1">
          <mxGeometry x="740" y="2730" width="240" height="40" as="geometry" />
        </mxCell>
        <mxCell id="KwxauNoUihIvwHTF1U2A-220" value="Admission Control" style="rounded=0;whiteSpace=wrap;html=1;shadow=0;fontSize=20;fillColor=#FFFFFF;" parent="1" vertex="1">
          <mxGeometry x="740" y="2800" width="240" height="40" as="geometry" />
        </mxCell>
        <mxCell id="KwxauNoUihIvwHTF1U2A-224" value="" style="edgeStyle=orthogonalEdgeStyle;rounded=0;jumpSize=1;orthogonalLoop=1;jettySize=auto;html=1;strokeColor=default;fontSize=20;startFill=1;endFill=1;" parent="1" source="KwxauNoUihIvwHTF1U2A-220" target="KwxauNoUihIvwHTF1U2A-223" edge="1">
          <mxGeometry relative="1" as="geometry" />
        </mxCell>
        <mxCell id="KwxauNoUihIvwHTF1U2A-232" value="" style="endArrow=classic;startArrow=classic;html=1;rounded=0;strokeColor=default;fontSize=20;jumpSize=1;entryX=0.5;entryY=1;entryDx=0;entryDy=0;" parent="1" source="KwxauNoUihIvwHTF1U2A-228" target="KwxauNoUihIvwHTF1U2A-230" edge="1">
          <mxGeometry width="50" height="50" relative="1" as="geometry">
            <mxPoint x="810" y="3060" as="sourcePoint" />
            <mxPoint x="860" y="3010" as="targetPoint" />
          </mxGeometry>
        </mxCell>
        <mxCell id="KwxauNoUihIvwHTF1U2A-237" value="API Server" style="text;html=1;strokeColor=none;fillColor=none;align=center;verticalAlign=middle;whiteSpace=wrap;rounded=0;shadow=0;fontSize=20;" parent="1" vertex="1">
          <mxGeometry x="605" y="2640" width="110" height="20" as="geometry" />
        </mxCell>
        <mxCell id="KwxauNoUihIvwHTF1U2A-239" value="" style="rounded=0;whiteSpace=wrap;html=1;shadow=0;fontSize=20;fillColor=#FFFFFF;" parent="1" vertex="1">
          <mxGeometry x="1270" y="2600" width="340" height="270" as="geometry" />
        </mxCell>
        <mxCell id="KwxauNoUihIvwHTF1U2A-241" value="" style="endArrow=classic;startArrow=classic;html=1;rounded=0;strokeColor=default;fontSize=20;jumpSize=1;entryX=0.5;entryY=1;entryDx=0;entryDy=0;exitX=0.5;exitY=0;exitDx=0;exitDy=0;" parent="1" source="KwxauNoUihIvwHTF1U2A-230" target="KwxauNoUihIvwHTF1U2A-210" edge="1">
          <mxGeometry width="50" height="50" relative="1" as="geometry">
            <mxPoint x="840" y="2560" as="sourcePoint" />
            <mxPoint x="890" y="2510" as="targetPoint" />
          </mxGeometry>
        </mxCell>
        <mxCell id="KwxauNoUihIvwHTF1U2A-242" value="get/post···&amp;nbsp; /api/v1" style="edgeLabel;html=1;align=center;verticalAlign=middle;resizable=0;points=[];fontSize=20;" parent="KwxauNoUihIvwHTF1U2A-241" vertex="1" connectable="0">
          <mxGeometry x="0.1933" y="-2" relative="1" as="geometry">
            <mxPoint y="-1" as="offset" />
          </mxGeometry>
        </mxCell>
        <mxCell id="KwxauNoUihIvwHTF1U2A-238" value="" style="endArrow=classic;startArrow=classic;html=1;rounded=0;strokeColor=default;fontSize=20;jumpSize=1;exitX=1;exitY=0.25;exitDx=0;exitDy=0;entryX=0;entryY=0.75;entryDx=0;entryDy=0;" parent="1" source="KwxauNoUihIvwHTF1U2A-230" target="KwxauNoUihIvwHTF1U2A-244" edge="1">
          <mxGeometry width="50" height="50" relative="1" as="geometry">
            <mxPoint x="1220" y="2730" as="sourcePoint" />
            <mxPoint x="1260" y="2680" as="targetPoint" />
          </mxGeometry>
        </mxCell>
        <mxCell id="KwxauNoUihIvwHTF1U2A-243" value="exec() req&amp;nbsp;" style="edgeLabel;html=1;align=center;verticalAlign=middle;resizable=0;points=[];fontSize=20;" parent="KwxauNoUihIvwHTF1U2A-238" vertex="1" connectable="0">
          <mxGeometry x="0.2317" y="-1" relative="1" as="geometry">
            <mxPoint x="-14" y="-1" as="offset" />
          </mxGeometry>
        </mxCell>
        <mxCell id="KwxauNoUihIvwHTF1U2A-244" value="kubelet" style="rounded=0;whiteSpace=wrap;html=1;shadow=0;fontSize=20;fillColor=#FFFFFF;" parent="1" vertex="1">
          <mxGeometry x="1295" y="2650" width="80" height="40" as="geometry" />
        </mxCell>
        <mxCell id="KwxauNoUihIvwHTF1U2A-245" value="" style="whiteSpace=wrap;html=1;fontSize=20;fillColor=#FFFFFF;rounded=0;shadow=0;" parent="1" vertex="1">
          <mxGeometry x="1440" y="2610" width="140" height="200" as="geometry" />
        </mxCell>
        <mxCell id="KwxauNoUihIvwHTF1U2A-248" value="" style="endArrow=classic;html=1;rounded=0;strokeColor=default;fontSize=20;jumpSize=1;entryX=0;entryY=0.25;entryDx=0;entryDy=0;" parent="1" source="KwxauNoUihIvwHTF1U2A-244" target="KwxauNoUihIvwHTF1U2A-245" edge="1">
          <mxGeometry relative="1" as="geometry">
            <mxPoint x="1370" y="2660" as="sourcePoint" />
            <mxPoint x="1410" y="2650" as="targetPoint" />
          </mxGeometry>
        </mxCell>
        <mxCell id="KwxauNoUihIvwHTF1U2A-249" value="CRI" style="edgeLabel;resizable=0;html=1;align=center;verticalAlign=middle;rounded=1;shadow=0;fontSize=20;fillColor=#FFFFFF;" parent="KwxauNoUihIvwHTF1U2A-248" connectable="0" vertex="1">
          <mxGeometry relative="1" as="geometry" />
        </mxCell>
        <mxCell id="KwxauNoUihIvwHTF1U2A-250" value="CRI shim" style="text;html=1;strokeColor=none;fillColor=none;align=center;verticalAlign=middle;whiteSpace=wrap;rounded=0;shadow=0;fontSize=20;" parent="1" vertex="1">
          <mxGeometry x="1460" y="2620" width="100" height="30" as="geometry" />
        </mxCell>
        <mxCell id="KwxauNoUihIvwHTF1U2A-251" value="Stream Runtime" style="rounded=0;whiteSpace=wrap;html=1;shadow=0;fontSize=20;fillColor=#FFFFFF;" parent="1" vertex="1">
          <mxGeometry x="1450" y="2670" width="120" height="50" as="geometry" />
        </mxCell>
        <mxCell id="KwxauNoUihIvwHTF1U2A-252" value="Streaming Server" style="rounded=0;whiteSpace=wrap;html=1;shadow=0;fontSize=20;fillColor=#FFFFFF;" parent="1" vertex="1">
          <mxGeometry x="1450" y="2750" width="120" height="50" as="geometry" />
        </mxCell>
        <mxCell id="KwxauNoUihIvwHTF1U2A-254" value="" style="endArrow=classic;html=1;rounded=0;strokeColor=default;fontSize=20;jumpSize=1;entryX=0;entryY=0.5;entryDx=0;entryDy=0;exitX=1;exitY=0.5;exitDx=0;exitDy=0;" parent="1" source="KwxauNoUihIvwHTF1U2A-230" target="KwxauNoUihIvwHTF1U2A-252" edge="1">
          <mxGeometry width="50" height="50" relative="1" as="geometry">
            <mxPoint x="1180" y="2820" as="sourcePoint" />
            <mxPoint x="1230" y="2770" as="targetPoint" />
          </mxGeometry>
        </mxCell>
        <mxCell id="KwxauNoUihIvwHTF1U2A-255" value="&quot;/exec/{token}&quot;" style="edgeLabel;html=1;align=center;verticalAlign=middle;resizable=0;points=[];fontSize=20;" parent="KwxauNoUihIvwHTF1U2A-254" vertex="1" connectable="0">
          <mxGeometry x="-0.3795" y="-2" relative="1" as="geometry">
            <mxPoint x="18" y="-4" as="offset" />
          </mxGeometry>
        </mxCell>
        <mxCell id="KwxauNoUihIvwHTF1U2A-256" value="" style="endArrow=classic;html=1;rounded=0;strokeColor=default;fontSize=20;jumpSize=1;exitX=0;exitY=1;exitDx=0;exitDy=0;entryX=1.003;entryY=0.593;entryDx=0;entryDy=0;entryPerimeter=0;" parent="1" source="KwxauNoUihIvwHTF1U2A-252" target="KwxauNoUihIvwHTF1U2A-230" edge="1">
          <mxGeometry width="50" height="50" relative="1" as="geometry">
            <mxPoint x="1430" y="2840" as="sourcePoint" />
            <mxPoint x="1380" y="2890" as="targetPoint" />
          </mxGeometry>
        </mxCell>
        <mxCell id="KwxauNoUihIvwHTF1U2A-257" value="stream resp" style="edgeLabel;html=1;align=center;verticalAlign=middle;resizable=0;points=[];fontSize=20;" parent="KwxauNoUihIvwHTF1U2A-256" vertex="1" connectable="0">
          <mxGeometry x="0.2962" y="1" relative="1" as="geometry">
            <mxPoint as="offset" />
          </mxGeometry>
        </mxCell>
        <mxCell id="KwxauNoUihIvwHTF1U2A-258" value="Container&lt;br&gt;Runtime" style="rounded=0;whiteSpace=wrap;html=1;shadow=0;fontSize=20;fillColor=#FFFFFF;" parent="1" vertex="1">
          <mxGeometry x="1640" y="2720" width="120" height="60" as="geometry" />
        </mxCell>
        <mxCell id="KwxauNoUihIvwHTF1U2A-259" value="" style="endArrow=classic;html=1;rounded=0;strokeColor=default;fontSize=20;jumpSize=1;entryX=0.25;entryY=0;entryDx=0;entryDy=0;exitX=1;exitY=0.25;exitDx=0;exitDy=0;" parent="1" source="KwxauNoUihIvwHTF1U2A-251" target="KwxauNoUihIvwHTF1U2A-258" edge="1">
          <mxGeometry width="50" height="50" relative="1" as="geometry">
            <mxPoint x="1620" y="2720" as="sourcePoint" />
            <mxPoint x="1670" y="2670" as="targetPoint" />
          </mxGeometry>
        </mxCell>
        <mxCell id="KwxauNoUihIvwHTF1U2A-260" value="exec api" style="edgeLabel;html=1;align=center;verticalAlign=middle;resizable=0;points=[];fontSize=20;" parent="KwxauNoUihIvwHTF1U2A-259" vertex="1" connectable="0">
          <mxGeometry x="0.386" y="1" relative="1" as="geometry">
            <mxPoint x="-10" y="-8" as="offset" />
          </mxGeometry>
        </mxCell>
        <mxCell id="KwxauNoUihIvwHTF1U2A-261" value="" style="endArrow=classic;html=1;rounded=0;strokeColor=default;fontSize=20;jumpSize=1;exitX=0;exitY=0.5;exitDx=0;exitDy=0;entryX=1;entryY=0.75;entryDx=0;entryDy=0;" parent="1" source="KwxauNoUihIvwHTF1U2A-258" target="KwxauNoUihIvwHTF1U2A-251" edge="1">
          <mxGeometry width="50" height="50" relative="1" as="geometry">
            <mxPoint x="1700" y="2840" as="sourcePoint" />
            <mxPoint x="1650" y="2890" as="targetPoint" />
          </mxGeometry>
        </mxCell>
        <mxCell id="KwxauNoUihIvwHTF1U2A-263" value="Worker node" style="text;html=1;strokeColor=none;fillColor=none;align=center;verticalAlign=middle;whiteSpace=wrap;rounded=0;shadow=0;fontSize=20;" parent="1" vertex="1">
          <mxGeometry x="1280" y="2609" width="120" height="31" as="geometry" />
        </mxCell>
        <mxCell id="FNgOQs0a9lcACMMEp1OY-17" value="" style="rounded=0;whiteSpace=wrap;html=1;fillColor=#dae8fc;strokeColor=#6c8ebf;" parent="1" vertex="1">
          <mxGeometry x="325" y="3297" width="839" height="617" as="geometry" />
        </mxCell>
        <mxCell id="FNgOQs0a9lcACMMEp1OY-18" value="" style="rounded=0;whiteSpace=wrap;html=1;fillColor=#d5e8d4;strokeColor=#82b366;" parent="1" vertex="1">
          <mxGeometry x="363" y="3424" width="469" height="368" as="geometry" />
        </mxCell>
        <mxCell id="FNgOQs0a9lcACMMEp1OY-19" value="" style="rounded=0;whiteSpace=wrap;html=1;fillColor=#dae8fc;strokeColor=#6c8ebf;" parent="1" vertex="1">
          <mxGeometry x="443" y="3332" width="320" height="71" as="geometry" />
        </mxCell>
        <mxCell id="WeCyGUOEhEna2WLgVE2X-19" style="edgeStyle=orthogonalEdgeStyle;rounded=0;orthogonalLoop=1;jettySize=auto;html=1;exitX=0;exitY=0.75;exitDx=0;exitDy=0;entryX=1;entryY=0.223;entryDx=0;entryDy=0;entryPerimeter=0;" parent="1" source="FNgOQs0a9lcACMMEp1OY-20" target="FNgOQs0a9lcACMMEp1OY-18" edge="1">
          <mxGeometry relative="1" as="geometry" />
        </mxCell>
        <mxCell id="FNgOQs0a9lcACMMEp1OY-20" value="" style="rounded=0;whiteSpace=wrap;html=1;fillColor=#dae8fc;strokeColor=#6c8ebf;" parent="1" vertex="1">
          <mxGeometry x="889.5" y="3392" width="229" height="152" as="geometry" />
        </mxCell>
        <mxCell id="FNgOQs0a9lcACMMEp1OY-21" value="可视化及管理子系统" style="text;html=1;strokeColor=none;fillColor=none;align=center;verticalAlign=middle;whiteSpace=wrap;rounded=0;" parent="1" vertex="1">
          <mxGeometry x="628" y="3295" width="208" height="28" as="geometry" />
        </mxCell>
        <mxCell id="FNgOQs0a9lcACMMEp1OY-23" value="链路及路由仿真子系统" style="text;html=1;strokeColor=none;fillColor=none;align=center;verticalAlign=middle;whiteSpace=wrap;rounded=0;" parent="1" vertex="1">
          <mxGeometry x="490" y="3450" width="188" height="27" as="geometry" />
        </mxCell>
        <mxCell id="FNgOQs0a9lcACMMEp1OY-25" value="网络拓扑编辑模块" style="text;html=1;strokeColor=none;fillColor=none;align=center;verticalAlign=middle;whiteSpace=wrap;rounded=0;" parent="1" vertex="1">
          <mxGeometry x="894.5" y="3403" width="129" height="18" as="geometry" />
        </mxCell>
        <mxCell id="FNgOQs0a9lcACMMEp1OY-26" value="节点配置" style="rounded=0;whiteSpace=wrap;html=1;fillColor=#dae8fc;strokeColor=#6c8ebf;" parent="1" vertex="1">
          <mxGeometry x="1023.5" y="3397" width="81" height="37" as="geometry" />
        </mxCell>
        <mxCell id="FNgOQs0a9lcACMMEp1OY-27" value="链路配置" style="rounded=0;whiteSpace=wrap;html=1;fillColor=#dae8fc;strokeColor=#6c8ebf;" parent="1" vertex="1">
          <mxGeometry x="1023.5" y="3448" width="81" height="36" as="geometry" />
        </mxCell>
        <mxCell id="FNgOQs0a9lcACMMEp1OY-28" value="端口配置" style="rounded=0;whiteSpace=wrap;html=1;fillColor=#dae8fc;strokeColor=#6c8ebf;" parent="1" vertex="1">
          <mxGeometry x="1022.5" y="3501" width="82" height="34" as="geometry" />
        </mxCell>
        <mxCell id="FNgOQs0a9lcACMMEp1OY-29" value="拓扑导入导出接口" style="rounded=0;whiteSpace=wrap;html=1;fillColor=#dae8fc;strokeColor=#6c8ebf;" parent="1" vertex="1">
          <mxGeometry x="903" y="3501" width="105" height="29.5" as="geometry" />
        </mxCell>
        <mxCell id="FNgOQs0a9lcACMMEp1OY-31" value="网络拓扑信息" style="text;html=1;strokeColor=none;fillColor=none;align=center;verticalAlign=middle;whiteSpace=wrap;rounded=0;" parent="1" vertex="1">
          <mxGeometry x="841.5" y="3425.5" width="32" height="70" as="geometry" />
        </mxCell>
        <mxCell id="FNgOQs0a9lcACMMEp1OY-50" style="edgeStyle=orthogonalEdgeStyle;rounded=0;orthogonalLoop=1;jettySize=auto;html=1;exitX=0;exitY=0.5;exitDx=0;exitDy=0;entryX=0;entryY=0.5;entryDx=0;entryDy=0;" parent="1" source="FNgOQs0a9lcACMMEp1OY-32" target="FNgOQs0a9lcACMMEp1OY-19" edge="1">
          <mxGeometry relative="1" as="geometry">
            <mxPoint x="295" y="3298" as="targetPoint" />
            <Array as="points">
              <mxPoint x="400" y="3865" />
              <mxPoint x="355" y="3865" />
              <mxPoint x="355" y="3368" />
              <mxPoint x="397" y="3368" />
            </Array>
          </mxGeometry>
        </mxCell>
        <mxCell id="FNgOQs0a9lcACMMEp1OY-52" style="edgeStyle=orthogonalEdgeStyle;rounded=0;orthogonalLoop=1;jettySize=auto;html=1;exitX=1;exitY=0.5;exitDx=0;exitDy=0;entryX=1;entryY=0.5;entryDx=0;entryDy=0;" parent="1" source="FNgOQs0a9lcACMMEp1OY-32" target="FNgOQs0a9lcACMMEp1OY-33" edge="1">
          <mxGeometry relative="1" as="geometry" />
        </mxCell>
        <mxCell id="FNgOQs0a9lcACMMEp1OY-53" style="edgeStyle=orthogonalEdgeStyle;rounded=0;orthogonalLoop=1;jettySize=auto;html=1;exitX=1;exitY=0.5;exitDx=0;exitDy=0;entryX=1;entryY=0.5;entryDx=0;entryDy=0;" parent="1" source="FNgOQs0a9lcACMMEp1OY-32" target="FNgOQs0a9lcACMMEp1OY-20" edge="1">
          <mxGeometry relative="1" as="geometry" />
        </mxCell>
        <mxCell id="WeCyGUOEhEna2WLgVE2X-16" style="edgeStyle=orthogonalEdgeStyle;rounded=0;orthogonalLoop=1;jettySize=auto;html=1;exitX=1;exitY=0.5;exitDx=0;exitDy=0;entryX=1;entryY=0.5;entryDx=0;entryDy=0;" parent="1" source="FNgOQs0a9lcACMMEp1OY-32" target="WeCyGUOEhEna2WLgVE2X-12" edge="1">
          <mxGeometry relative="1" as="geometry" />
        </mxCell>
        <mxCell id="WeCyGUOEhEna2WLgVE2X-17" style="edgeStyle=orthogonalEdgeStyle;rounded=0;orthogonalLoop=1;jettySize=auto;html=1;exitX=1;exitY=0.5;exitDx=0;exitDy=0;entryX=1;entryY=0.5;entryDx=0;entryDy=0;" parent="1" source="FNgOQs0a9lcACMMEp1OY-32" target="WeCyGUOEhEna2WLgVE2X-8" edge="1">
          <mxGeometry relative="1" as="geometry" />
        </mxCell>
        <mxCell id="FNgOQs0a9lcACMMEp1OY-32" value="" style="rounded=0;whiteSpace=wrap;html=1;fillColor=#dae8fc;strokeColor=#6c8ebf;" parent="1" vertex="1">
          <mxGeometry x="400" y="3819" width="728" height="78" as="geometry" />
        </mxCell>
        <mxCell id="FNgOQs0a9lcACMMEp1OY-33" value="" style="rounded=0;whiteSpace=wrap;html=1;fillColor=#dae8fc;strokeColor=#6c8ebf;" parent="1" vertex="1">
          <mxGeometry x="885" y="3662" width="247.5" height="147" as="geometry" />
        </mxCell>
        <mxCell id="FNgOQs0a9lcACMMEp1OY-34" value="Kubernetes管理" style="text;html=1;strokeColor=none;fillColor=none;align=center;verticalAlign=middle;whiteSpace=wrap;rounded=0;" parent="1" vertex="1">
          <mxGeometry x="938" y="3667" width="132" height="22" as="geometry" />
        </mxCell>
        <mxCell id="FNgOQs0a9lcACMMEp1OY-35" value="命名空间管理" style="rounded=0;whiteSpace=wrap;html=1;fillColor=#dae8fc;strokeColor=#6c8ebf;" parent="1" vertex="1">
          <mxGeometry x="924" y="3693" width="158" height="26" as="geometry" />
        </mxCell>
        <mxCell id="FNgOQs0a9lcACMMEp1OY-37" value="交互功能" style="rounded=0;whiteSpace=wrap;html=1;fillColor=#dae8fc;strokeColor=#6c8ebf;" parent="1" vertex="1">
          <mxGeometry x="896.5" y="3446" width="95" height="31" as="geometry" />
        </mxCell>
        <mxCell id="FNgOQs0a9lcACMMEp1OY-38" value="pod管理" style="rounded=0;whiteSpace=wrap;html=1;fillColor=#dae8fc;strokeColor=#6c8ebf;" parent="1" vertex="1">
          <mxGeometry x="924" y="3729" width="157" height="25" as="geometry" />
        </mxCell>
        <mxCell id="FNgOQs0a9lcACMMEp1OY-39" value="Web Terminal交互" style="rounded=0;whiteSpace=wrap;html=1;fillColor=#dae8fc;strokeColor=#6c8ebf;" parent="1" vertex="1">
          <mxGeometry x="927" y="3769" width="154" height="27" as="geometry" />
        </mxCell>
        <mxCell id="FNgOQs0a9lcACMMEp1OY-40" value="拓扑可视化算法" style="text;html=1;strokeColor=none;fillColor=none;align=center;verticalAlign=middle;whiteSpace=wrap;rounded=0;" parent="1" vertex="1">
          <mxGeometry x="544" y="3337" width="118" height="21" as="geometry" />
        </mxCell>
        <mxCell id="FNgOQs0a9lcACMMEp1OY-41" value="" style="endArrow=classic;startArrow=classic;html=1;rounded=0;entryX=0;entryY=0.5;entryDx=0;entryDy=0;exitX=0.996;exitY=0.851;exitDx=0;exitDy=0;exitPerimeter=0;" parent="1" source="FNgOQs0a9lcACMMEp1OY-18" target="FNgOQs0a9lcACMMEp1OY-33" edge="1">
          <mxGeometry width="50" height="50" relative="1" as="geometry">
            <mxPoint x="833" y="3697" as="sourcePoint" />
            <mxPoint x="883" y="3678" as="targetPoint" />
          </mxGeometry>
        </mxCell>
        <mxCell id="FNgOQs0a9lcACMMEp1OY-42" value="数&lt;br&gt;据&lt;br&gt;交&lt;br&gt;互" style="text;html=1;strokeColor=none;fillColor=none;align=center;verticalAlign=middle;whiteSpace=wrap;rounded=0;" parent="1" vertex="1">
          <mxGeometry x="839.5" y="3676" width="34" height="50" as="geometry" />
        </mxCell>
        <mxCell id="FNgOQs0a9lcACMMEp1OY-43" value="分层力导引布局算法" style="rounded=0;whiteSpace=wrap;html=1;fillColor=#dae8fc;strokeColor=#6c8ebf;" parent="1" vertex="1">
          <mxGeometry x="457" y="3367" width="136" height="29" as="geometry" />
        </mxCell>
        <mxCell id="FNgOQs0a9lcACMMEp1OY-44" value="双平面布局算法" style="rounded=0;whiteSpace=wrap;html=1;fillColor=#dae8fc;strokeColor=#6c8ebf;" parent="1" vertex="1">
          <mxGeometry x="618" y="3364" width="116" height="32" as="geometry" />
        </mxCell>
        <mxCell id="FNgOQs0a9lcACMMEp1OY-45" value="数据层" style="text;html=1;align=center;verticalAlign=middle;whiteSpace=wrap;rounded=0;" parent="1" vertex="1">
          <mxGeometry x="735" y="3825" width="69" height="23" as="geometry" />
        </mxCell>
        <mxCell id="FNgOQs0a9lcACMMEp1OY-46" value="Mysql" style="rounded=0;whiteSpace=wrap;html=1;fillColor=#dae8fc;strokeColor=#6c8ebf;" parent="1" vertex="1">
          <mxGeometry x="453.5" y="3855" width="123" height="38" as="geometry" />
        </mxCell>
        <mxCell id="FNgOQs0a9lcACMMEp1OY-47" value="etcd" style="rounded=0;whiteSpace=wrap;html=1;fillColor=#dae8fc;strokeColor=#6c8ebf;" parent="1" vertex="1">
          <mxGeometry x="920" y="3855" width="123" height="38" as="geometry" />
        </mxCell>
        <mxCell id="FNgOQs0a9lcACMMEp1OY-48" value="Redis" style="rounded=0;whiteSpace=wrap;html=1;fillColor=#dae8fc;strokeColor=#6c8ebf;" parent="1" vertex="1">
          <mxGeometry x="687" y="3855" width="123" height="38" as="geometry" />
        </mxCell>
        <mxCell id="FNgOQs0a9lcACMMEp1OY-54" value="链路参数仿真" style="rounded=0;whiteSpace=wrap;html=1;fillColor=#d5e8d4;strokeColor=#82b366;" parent="1" vertex="1">
          <mxGeometry x="385" y="3497" width="120" height="60" as="geometry" />
        </mxCell>
        <mxCell id="FNgOQs0a9lcACMMEp1OY-55" value="链路流量仿真" style="rounded=0;whiteSpace=wrap;html=1;fillColor=#d5e8d4;strokeColor=#82b366;" parent="1" vertex="1">
          <mxGeometry x="538" y="3499" width="120" height="60" as="geometry" />
        </mxCell>
        <mxCell id="FNgOQs0a9lcACMMEp1OY-56" value="隧道仿真" style="rounded=0;whiteSpace=wrap;html=1;fillColor=#d5e8d4;strokeColor=#82b366;" parent="1" vertex="1">
          <mxGeometry x="680" y="3499" width="120" height="51" as="geometry" />
        </mxCell>
        <mxCell id="FNgOQs0a9lcACMMEp1OY-57" value="容器创建" style="rounded=0;whiteSpace=wrap;html=1;fillColor=#d5e8d4;strokeColor=#82b366;" parent="1" vertex="1">
          <mxGeometry x="374" y="3657" width="120" height="60" as="geometry" />
        </mxCell>
        <mxCell id="FNgOQs0a9lcACMMEp1OY-58" value="分配资源" style="rounded=0;whiteSpace=wrap;html=1;fillColor=#d5e8d4;strokeColor=#82b366;" parent="1" vertex="1">
          <mxGeometry x="522" y="3659" width="120" height="60" as="geometry" />
        </mxCell>
        <mxCell id="FNgOQs0a9lcACMMEp1OY-59" value="配置映射" style="rounded=0;whiteSpace=wrap;html=1;fillColor=#d5e8d4;strokeColor=#82b366;" parent="1" vertex="1">
          <mxGeometry x="680" y="3659" width="120" height="60" as="geometry" />
        </mxCell>
        <mxCell id="WeCyGUOEhEna2WLgVE2X-14" value="" style="edgeStyle=orthogonalEdgeStyle;rounded=0;orthogonalLoop=1;jettySize=auto;html=1;" parent="1" source="WeCyGUOEhEna2WLgVE2X-8" edge="1">
          <mxGeometry relative="1" as="geometry">
            <mxPoint x="835" y="3577" as="targetPoint" />
          </mxGeometry>
        </mxCell>
        <mxCell id="WeCyGUOEhEna2WLgVE2X-8" value="流量管理模块" style="rounded=0;whiteSpace=wrap;html=1;fillColor=#dae8fc;strokeColor=#6c8ebf;" parent="1" vertex="1">
          <mxGeometry x="911" y="3561" width="186" height="31" as="geometry" />
        </mxCell>
        <mxCell id="WeCyGUOEhEna2WLgVE2X-13" style="edgeStyle=orthogonalEdgeStyle;rounded=0;orthogonalLoop=1;jettySize=auto;html=1;exitX=0;exitY=0.5;exitDx=0;exitDy=0;entryX=0.996;entryY=0.571;entryDx=0;entryDy=0;entryPerimeter=0;" parent="1" source="WeCyGUOEhEna2WLgVE2X-12" target="FNgOQs0a9lcACMMEp1OY-18" edge="1">
          <mxGeometry relative="1" as="geometry" />
        </mxCell>
        <mxCell id="WeCyGUOEhEna2WLgVE2X-12" value="仿真管理模块" style="rounded=0;whiteSpace=wrap;html=1;fillColor=#dae8fc;strokeColor=#6c8ebf;" parent="1" vertex="1">
          <mxGeometry x="914" y="3618" width="178" height="31" as="geometry" />
        </mxCell>
        <mxCell id="WeCyGUOEhEna2WLgVE2X-21" value="流量管理" style="rounded=0;whiteSpace=wrap;html=1;" parent="1" vertex="1">
          <mxGeometry x="961" y="836" width="128.5" height="69" as="geometry" />
        </mxCell>
        <mxCell id="WeCyGUOEhEna2WLgVE2X-22" value="仿真管理" style="rounded=0;whiteSpace=wrap;html=1;" parent="1" vertex="1">
          <mxGeometry x="1130" y="832.5" width="128.5" height="69" as="geometry" />
        </mxCell>
        <mxCell id="WeCyGUOEhEna2WLgVE2X-25" value="流量模块" style="rounded=0;whiteSpace=wrap;html=1;" parent="1" vertex="1">
          <mxGeometry x="1100" y="954.01" width="90" height="128.99" as="geometry" />
        </mxCell>
        <mxCell id="WeCyGUOEhEna2WLgVE2X-26" value="仿真模块" style="rounded=0;whiteSpace=wrap;html=1;" parent="1" vertex="1">
          <mxGeometry x="1202" y="955.5" width="90" height="128.99" as="geometry" />
        </mxCell>
        <mxCell id="WeCyGUOEhEna2WLgVE2X-27" value="gorm" style="rounded=0;whiteSpace=wrap;html=1;" parent="1" vertex="1">
          <mxGeometry x="960" y="1140" width="190" height="70" as="geometry" />
        </mxCell>
        <mxCell id="wZrMvj_LK0XuO9FUCm4h-6" value="拓扑编辑模块" style="rounded=1;shadow=0;fontStyle=1;fontSize=14;" parent="1" vertex="1">
          <mxGeometry x="2092" y="330" width="220" height="40" as="geometry" />
        </mxCell>
        <mxCell id="wZrMvj_LK0XuO9FUCm4h-7" value="" style="edgeStyle=orthogonalEdgeStyle;rounded=0;jumpSize=1;orthogonalLoop=1;jettySize=auto;html=1;strokeColor=default;startFill=1;endFill=1;" parent="1" source="wZrMvj_LK0XuO9FUCm4h-9" target="wZrMvj_LK0XuO9FUCm4h-19" edge="1">
          <mxGeometry relative="1" as="geometry" />
        </mxCell>
        <mxCell id="wZrMvj_LK0XuO9FUCm4h-8" value="" style="edgeStyle=orthogonalEdgeStyle;rounded=0;jumpSize=1;orthogonalLoop=1;jettySize=auto;html=1;strokeColor=default;startFill=1;endFill=1;entryX=0.5;entryY=0;entryDx=0;entryDy=0;" parent="1" source="wZrMvj_LK0XuO9FUCm4h-9" target="wZrMvj_LK0XuO9FUCm4h-20" edge="1">
          <mxGeometry relative="1" as="geometry">
            <mxPoint x="1951" y="610" as="targetPoint" />
          </mxGeometry>
        </mxCell>
        <mxCell id="wZrMvj_LK0XuO9FUCm4h-9" value="拖动编辑功能" style="rounded=1;shadow=1;fontStyle=1;fontSize=14;" parent="1" vertex="1">
          <mxGeometry x="1811" y="455.5" width="200" height="60" as="geometry" />
        </mxCell>
        <mxCell id="wZrMvj_LK0XuO9FUCm4h-10" value="结果展示功能" style="rounded=1;shadow=1;fontStyle=1;fontSize=14;" parent="1" vertex="1">
          <mxGeometry x="2102" y="455.5" width="200" height="60" as="geometry" />
        </mxCell>
        <mxCell id="wZrMvj_LK0XuO9FUCm4h-12" value="" style="edgeStyle=orthogonalEdgeStyle;rounded=0;jumpSize=1;orthogonalLoop=1;jettySize=auto;html=1;strokeColor=default;startFill=1;endFill=1;" parent="1" source="wZrMvj_LK0XuO9FUCm4h-14" target="wZrMvj_LK0XuO9FUCm4h-35" edge="1">
          <mxGeometry relative="1" as="geometry" />
        </mxCell>
        <mxCell id="wZrMvj_LK0XuO9FUCm4h-13" style="edgeStyle=orthogonalEdgeStyle;rounded=0;jumpSize=1;orthogonalLoop=1;jettySize=auto;html=1;exitX=0.5;exitY=1;exitDx=0;exitDy=0;entryX=0.5;entryY=0;entryDx=0;entryDy=0;strokeColor=default;startFill=1;endFill=1;" parent="1" source="wZrMvj_LK0XuO9FUCm4h-14" target="wZrMvj_LK0XuO9FUCm4h-38" edge="1">
          <mxGeometry relative="1" as="geometry" />
        </mxCell>
        <mxCell id="wZrMvj_LK0XuO9FUCm4h-14" value="画布交互功能" style="rounded=1;shadow=1;fontStyle=1;fontSize=14;" parent="1" vertex="1">
          <mxGeometry x="2410" y="455.5" width="200" height="60" as="geometry" />
        </mxCell>
        <mxCell id="wZrMvj_LK0XuO9FUCm4h-15" value="" style="endArrow=classic;html=1;rounded=0;strokeColor=default;jumpSize=1;edgeStyle=orthogonalEdgeStyle;entryX=0.5;entryY=0;entryDx=0;entryDy=0;exitX=0.5;exitY=1;exitDx=0;exitDy=0;" parent="1" source="wZrMvj_LK0XuO9FUCm4h-6" target="wZrMvj_LK0XuO9FUCm4h-9" edge="1">
          <mxGeometry width="50" height="50" relative="1" as="geometry">
            <mxPoint x="2250.94" y="390" as="sourcePoint" />
            <mxPoint x="2200.94" y="440" as="targetPoint" />
          </mxGeometry>
        </mxCell>
        <mxCell id="wZrMvj_LK0XuO9FUCm4h-16" value="" style="endArrow=classic;html=1;rounded=0;strokeColor=default;jumpSize=1;entryX=0.5;entryY=0;entryDx=0;entryDy=0;exitX=0.5;exitY=1;exitDx=0;exitDy=0;edgeStyle=orthogonalEdgeStyle;" parent="1" source="wZrMvj_LK0XuO9FUCm4h-6" target="wZrMvj_LK0XuO9FUCm4h-10" edge="1">
          <mxGeometry width="50" height="50" relative="1" as="geometry">
            <mxPoint x="2311" y="420" as="sourcePoint" />
            <mxPoint x="2261" y="470" as="targetPoint" />
          </mxGeometry>
        </mxCell>
        <mxCell id="wZrMvj_LK0XuO9FUCm4h-18" value="" style="endArrow=classic;html=1;rounded=0;strokeColor=default;jumpSize=1;entryX=0.5;entryY=0;entryDx=0;entryDy=0;exitX=0.5;exitY=1;exitDx=0;exitDy=0;edgeStyle=orthogonalEdgeStyle;" parent="1" source="wZrMvj_LK0XuO9FUCm4h-6" target="wZrMvj_LK0XuO9FUCm4h-14" edge="1">
          <mxGeometry width="50" height="50" relative="1" as="geometry">
            <mxPoint x="2611" y="400" as="sourcePoint" />
            <mxPoint x="2561" y="450" as="targetPoint" />
          </mxGeometry>
        </mxCell>
        <mxCell id="wZrMvj_LK0XuO9FUCm4h-19" value="节&lt;br&gt;点&lt;br&gt;拖&lt;br&gt;动&lt;br&gt;编&lt;br&gt;辑" style="whiteSpace=wrap;html=1;fontSize=14;rounded=1;shadow=1;fontStyle=1;align=center;" parent="1" vertex="1">
          <mxGeometry x="1801" y="601" width="50" height="130" as="geometry" />
        </mxCell>
        <mxCell id="wZrMvj_LK0XuO9FUCm4h-20" value="链&lt;br&gt;路&lt;br&gt;创&lt;br&gt;建&lt;br&gt;编&lt;br&gt;辑" style="whiteSpace=wrap;html=1;fontSize=14;rounded=1;shadow=1;fontStyle=1;" parent="1" vertex="1">
          <mxGeometry x="1886" y="600" width="50" height="130" as="geometry" />
        </mxCell>
        <mxCell id="wZrMvj_LK0XuO9FUCm4h-21" value="端&lt;br&gt;口&lt;br&gt;创&lt;br&gt;建&lt;br&gt;编&lt;br&gt;辑" style="whiteSpace=wrap;html=1;fontSize=14;rounded=1;shadow=1;fontStyle=1;" parent="1" vertex="1">
          <mxGeometry x="1971" y="600" width="50" height="130" as="geometry" />
        </mxCell>
        <mxCell id="wZrMvj_LK0XuO9FUCm4h-22" value="" style="edgeStyle=orthogonalEdgeStyle;rounded=0;jumpSize=1;orthogonalLoop=1;jettySize=auto;html=1;strokeColor=default;startFill=1;endFill=1;entryX=0.5;entryY=0;entryDx=0;entryDy=0;exitX=0.5;exitY=1;exitDx=0;exitDy=0;" parent="1" source="wZrMvj_LK0XuO9FUCm4h-9" target="wZrMvj_LK0XuO9FUCm4h-21" edge="1">
          <mxGeometry relative="1" as="geometry">
            <mxPoint x="1961" y="510" as="sourcePoint" />
            <mxPoint x="1996" y="594.5" as="targetPoint" />
          </mxGeometry>
        </mxCell>
        <mxCell id="wZrMvj_LK0XuO9FUCm4h-23" value="" style="edgeStyle=orthogonalEdgeStyle;rounded=0;jumpSize=1;orthogonalLoop=1;jettySize=auto;html=1;strokeColor=default;startFill=1;endFill=1;" parent="1" target="wZrMvj_LK0XuO9FUCm4h-25" edge="1">
          <mxGeometry relative="1" as="geometry">
            <mxPoint x="2202" y="550" as="sourcePoint" />
          </mxGeometry>
        </mxCell>
        <mxCell id="wZrMvj_LK0XuO9FUCm4h-24" value="" style="edgeStyle=orthogonalEdgeStyle;rounded=0;jumpSize=1;orthogonalLoop=1;jettySize=auto;html=1;strokeColor=default;startFill=1;endFill=1;entryX=0.5;entryY=0;entryDx=0;entryDy=0;exitX=0.5;exitY=1;exitDx=0;exitDy=0;" parent="1" source="wZrMvj_LK0XuO9FUCm4h-10" target="wZrMvj_LK0XuO9FUCm4h-26" edge="1">
          <mxGeometry relative="1" as="geometry">
            <mxPoint x="2202" y="550" as="sourcePoint" />
            <mxPoint x="2242" y="644.5" as="targetPoint" />
          </mxGeometry>
        </mxCell>
        <mxCell id="wZrMvj_LK0XuO9FUCm4h-25" value="查&lt;br style=&quot;border-color: var(--border-color);&quot;&gt;看&lt;br style=&quot;border-color: var(--border-color);&quot;&gt;节&lt;br style=&quot;border-color: var(--border-color);&quot;&gt;点&lt;br style=&quot;border-color: var(--border-color);&quot;&gt;列&lt;br style=&quot;border-color: var(--border-color);&quot;&gt;表" style="whiteSpace=wrap;html=1;fontSize=14;rounded=1;shadow=1;fontStyle=1;align=center;" parent="1" vertex="1">
          <mxGeometry x="2102" y="600" width="50" height="130" as="geometry" />
        </mxCell>
        <mxCell id="wZrMvj_LK0XuO9FUCm4h-26" value="查&lt;br style=&quot;border-color: var(--border-color);&quot;&gt;看&lt;br style=&quot;border-color: var(--border-color);&quot;&gt;链&lt;br style=&quot;border-color: var(--border-color);&quot;&gt;路&lt;br style=&quot;border-color: var(--border-color);&quot;&gt;列&lt;br style=&quot;border-color: var(--border-color);&quot;&gt;表" style="whiteSpace=wrap;html=1;fontSize=14;rounded=1;shadow=1;fontStyle=1;" parent="1" vertex="1">
          <mxGeometry x="2177" y="600" width="50" height="130" as="geometry" />
        </mxCell>
        <mxCell id="wZrMvj_LK0XuO9FUCm4h-27" value="查&lt;br style=&quot;border-color: var(--border-color);&quot;&gt;看&lt;br style=&quot;border-color: var(--border-color);&quot;&gt;端&lt;br&gt;口&lt;br style=&quot;border-color: var(--border-color);&quot;&gt;列&lt;br style=&quot;border-color: var(--border-color);&quot;&gt;表" style="whiteSpace=wrap;html=1;fontSize=14;rounded=1;shadow=1;fontStyle=1;" parent="1" vertex="1">
          <mxGeometry x="2252" y="600" width="50" height="130" as="geometry" />
        </mxCell>
        <mxCell id="wZrMvj_LK0XuO9FUCm4h-28" value="" style="edgeStyle=orthogonalEdgeStyle;rounded=0;jumpSize=1;orthogonalLoop=1;jettySize=auto;html=1;strokeColor=default;startFill=1;endFill=1;entryX=0.5;entryY=0;entryDx=0;entryDy=0;exitX=0.5;exitY=1;exitDx=0;exitDy=0;" parent="1" target="wZrMvj_LK0XuO9FUCm4h-27" edge="1">
          <mxGeometry relative="1" as="geometry">
            <mxPoint x="2202" y="550" as="sourcePoint" />
            <mxPoint x="2287" y="629" as="targetPoint" />
          </mxGeometry>
        </mxCell>
        <mxCell id="wZrMvj_LK0XuO9FUCm4h-33" value="" style="edgeStyle=orthogonalEdgeStyle;rounded=0;jumpSize=1;orthogonalLoop=1;jettySize=auto;html=1;strokeColor=default;startFill=1;endFill=1;" parent="1" target="wZrMvj_LK0XuO9FUCm4h-34" edge="1">
          <mxGeometry relative="1" as="geometry">
            <mxPoint x="2520" y="557.75" as="sourcePoint" />
          </mxGeometry>
        </mxCell>
        <mxCell id="wZrMvj_LK0XuO9FUCm4h-34" value="画&lt;br&gt;布&lt;br&gt;放&lt;br&gt;大&lt;br&gt;缩&lt;br&gt;小" style="whiteSpace=wrap;html=1;fontSize=14;rounded=1;shadow=1;fontStyle=1;align=center;" parent="1" vertex="1">
          <mxGeometry x="2370" y="600" width="50" height="130" as="geometry" />
        </mxCell>
        <mxCell id="wZrMvj_LK0XuO9FUCm4h-35" value="撤&lt;br&gt;销&lt;br&gt;重&lt;br&gt;做&lt;br&gt;操&lt;br&gt;作" style="whiteSpace=wrap;html=1;fontSize=14;rounded=1;shadow=1;fontStyle=1;arcSize=0;" parent="1" vertex="1">
          <mxGeometry x="2440" y="600" width="50" height="130" as="geometry" />
        </mxCell>
        <mxCell id="wZrMvj_LK0XuO9FUCm4h-36" value="小&lt;br&gt;地&lt;br&gt;图&lt;br&gt;等&lt;br&gt;功&lt;br&gt;能" style="whiteSpace=wrap;html=1;fontSize=14;rounded=1;shadow=1;fontStyle=1;" parent="1" vertex="1">
          <mxGeometry x="2600" y="600" width="50" height="130" as="geometry" />
        </mxCell>
        <mxCell id="wZrMvj_LK0XuO9FUCm4h-37" value="" style="edgeStyle=orthogonalEdgeStyle;rounded=0;jumpSize=1;orthogonalLoop=1;jettySize=auto;html=1;strokeColor=default;startFill=1;endFill=1;entryX=0.5;entryY=0;entryDx=0;entryDy=0;exitX=0.5;exitY=1;exitDx=0;exitDy=0;" parent="1" target="wZrMvj_LK0XuO9FUCm4h-36" edge="1">
          <mxGeometry relative="1" as="geometry">
            <mxPoint x="2520" y="557.75" as="sourcePoint" />
            <mxPoint x="2605" y="636.75" as="targetPoint" />
          </mxGeometry>
        </mxCell>
        <mxCell id="wZrMvj_LK0XuO9FUCm4h-38" value="导&lt;br&gt;出&lt;br&gt;拓&lt;br&gt;扑&lt;br&gt;图&lt;br&gt;片" style="whiteSpace=wrap;html=1;fontSize=14;rounded=1;shadow=1;fontStyle=1;" parent="1" vertex="1">
          <mxGeometry x="2520" y="600" width="50" height="130" as="geometry" />
        </mxCell>
        <mxCell id="d9e7JUGaRQhJMEoOyAsT-6" value="" style="rounded=0;whiteSpace=wrap;html=1;shadow=0;fontSize=20;fillColor=#D6E6F2;strokeColor=#36393d;" vertex="1" parent="1">
          <mxGeometry x="2304" y="1438" width="1220" height="770" as="geometry" />
        </mxCell>
        <mxCell id="d9e7JUGaRQhJMEoOyAsT-7" value="" style="rounded=0;whiteSpace=wrap;html=1;shadow=0;fontSize=20;fillColor=#B9D7EA;strokeColor=#b85450;" vertex="1" parent="1">
          <mxGeometry x="2434" y="1478" width="1000" height="220" as="geometry" />
        </mxCell>
        <mxCell id="d9e7JUGaRQhJMEoOyAsT-8" value="" style="rounded=0;whiteSpace=wrap;html=1;shadow=0;fontStyle=1;fillColor=#B9D7EA;strokeColor=#b85450;" vertex="1" parent="1">
          <mxGeometry x="2434" y="1868" width="1000" height="120" as="geometry" />
        </mxCell>
        <mxCell id="d9e7JUGaRQhJMEoOyAsT-9" value="Golang" style="rounded=0;whiteSpace=wrap;html=1;shadow=0;fontSize=20;fillColor=#769FCD;strokeColor=#d79b00;" vertex="1" parent="1">
          <mxGeometry x="2524" y="1898" width="120" height="60" as="geometry" />
        </mxCell>
        <mxCell id="d9e7JUGaRQhJMEoOyAsT-10" value="Gin" style="rounded=0;whiteSpace=wrap;html=1;shadow=0;fontSize=20;fillColor=#769FCD;strokeColor=#d79b00;" vertex="1" parent="1">
          <mxGeometry x="2786.5" y="1898" width="120" height="60" as="geometry" />
        </mxCell>
        <mxCell id="d9e7JUGaRQhJMEoOyAsT-11" value="展示层" style="text;html=1;strokeColor=none;fillColor=none;align=center;verticalAlign=middle;whiteSpace=wrap;rounded=0;shadow=0;fontSize=20;" vertex="1" parent="1">
          <mxGeometry x="2319" y="1568" width="95" height="35" as="geometry" />
        </mxCell>
        <mxCell id="d9e7JUGaRQhJMEoOyAsT-12" value="D3" style="rounded=1;whiteSpace=wrap;html=1;shadow=0;fontSize=20;fillColor=#769FCD;strokeColor=#6c8ebf;" vertex="1" parent="1">
          <mxGeometry x="2654" y="1508" width="120" height="60" as="geometry" />
        </mxCell>
        <mxCell id="d9e7JUGaRQhJMEoOyAsT-13" value="Three.js" style="rounded=1;whiteSpace=wrap;html=1;shadow=0;fontSize=20;fillColor=#769FCD;strokeColor=#6c8ebf;" vertex="1" parent="1">
          <mxGeometry x="2824" y="1508" width="120" height="60" as="geometry" />
        </mxCell>
        <mxCell id="d9e7JUGaRQhJMEoOyAsT-14" value="AntV-X6" style="rounded=1;whiteSpace=wrap;html=1;shadow=0;fontSize=20;fillColor=#769FCD;strokeColor=#6c8ebf;" vertex="1" parent="1">
          <mxGeometry x="3004" y="1508" width="120" height="60" as="geometry" />
        </mxCell>
        <mxCell id="d9e7JUGaRQhJMEoOyAsT-15" value="&lt;span style=&quot;font-size: 20px;&quot;&gt;HTML&lt;/span&gt;" style="rounded=1;whiteSpace=wrap;html=1;shadow=0;fillColor=#769FCD;strokeColor=#6c8ebf;" vertex="1" parent="1">
          <mxGeometry x="2554" y="1598" width="120" height="60" as="geometry" />
        </mxCell>
        <mxCell id="d9e7JUGaRQhJMEoOyAsT-16" value="&lt;font style=&quot;font-size: 20px;&quot;&gt;CSS&lt;/font&gt;" style="rounded=1;whiteSpace=wrap;html=1;shadow=0;fillColor=#769FCD;strokeColor=#6c8ebf;" vertex="1" parent="1">
          <mxGeometry x="2824" y="1598" width="120" height="60" as="geometry" />
        </mxCell>
        <mxCell id="d9e7JUGaRQhJMEoOyAsT-17" value="&lt;font style=&quot;font-size: 20px;&quot;&gt;JavaScript&lt;/font&gt;" style="rounded=1;whiteSpace=wrap;html=1;shadow=0;fillColor=#769FCD;strokeColor=#6c8ebf;" vertex="1" parent="1">
          <mxGeometry x="3109" y="1598" width="120" height="60" as="geometry" />
        </mxCell>
        <mxCell id="d9e7JUGaRQhJMEoOyAsT-18" value="Xterm" style="rounded=1;whiteSpace=wrap;html=1;shadow=0;fontSize=20;fillColor=#769FCD;strokeColor=#6c8ebf;" vertex="1" parent="1">
          <mxGeometry x="3194" y="1508" width="120" height="60" as="geometry" />
        </mxCell>
        <mxCell id="d9e7JUGaRQhJMEoOyAsT-19" value="&lt;font color=&quot;#112d4e&quot; style=&quot;font-size: 20px;&quot;&gt;Vue&lt;/font&gt;" style="rounded=1;whiteSpace=wrap;html=1;shadow=0;fillColor=#769FCD;strokeColor=#6c8ebf;" vertex="1" parent="1">
          <mxGeometry x="2484" y="1508" width="120" height="60" as="geometry" />
        </mxCell>
        <mxCell id="d9e7JUGaRQhJMEoOyAsT-20" value="" style="rounded=0;whiteSpace=wrap;html=1;shadow=0;fontSize=20;fillColor=#B9D7EA;strokeColor=#b85450;" vertex="1" parent="1">
          <mxGeometry x="2434" y="1738" width="1000" height="90" as="geometry" />
        </mxCell>
        <mxCell id="d9e7JUGaRQhJMEoOyAsT-21" value="Axios" style="rounded=0;whiteSpace=wrap;html=1;shadow=0;fontSize=20;fillColor=#769FCD;strokeColor=#82b366;" vertex="1" parent="1">
          <mxGeometry x="2594" y="1758" width="120" height="60" as="geometry" />
        </mxCell>
        <mxCell id="d9e7JUGaRQhJMEoOyAsT-22" value="RESTful" style="rounded=0;whiteSpace=wrap;html=1;shadow=0;fontSize=20;fillColor=#769FCD;strokeColor=#82b366;" vertex="1" parent="1">
          <mxGeometry x="3074" y="1758" width="120" height="60" as="geometry" />
        </mxCell>
        <mxCell id="d9e7JUGaRQhJMEoOyAsT-23" value="消息传输" style="text;whiteSpace=wrap;html=1;fontSize=20;" vertex="1" parent="1">
          <mxGeometry x="2334" y="1768" width="105" height="40" as="geometry" />
        </mxCell>
        <mxCell id="d9e7JUGaRQhJMEoOyAsT-24" value="服务层" style="text;whiteSpace=wrap;html=1;fontSize=20;" vertex="1" parent="1">
          <mxGeometry x="2344" y="1908" width="105" height="40" as="geometry" />
        </mxCell>
        <mxCell id="d9e7JUGaRQhJMEoOyAsT-25" value="" style="rounded=0;whiteSpace=wrap;html=1;shadow=0;fontSize=20;fillColor=#B9D7EA;strokeColor=#b85450;" vertex="1" parent="1">
          <mxGeometry x="2434" y="2038" width="1000" height="120" as="geometry" />
        </mxCell>
        <mxCell id="d9e7JUGaRQhJMEoOyAsT-26" value="Kubernetes" style="rounded=0;whiteSpace=wrap;html=1;shadow=0;fontSize=20;fillColor=#769FCD;strokeColor=#9673a6;" vertex="1" parent="1">
          <mxGeometry x="2909" y="2078" width="120" height="60" as="geometry" />
        </mxCell>
        <mxCell id="d9e7JUGaRQhJMEoOyAsT-27" value="Ubuntu" style="rounded=0;whiteSpace=wrap;html=1;shadow=0;fontSize=20;fillColor=#769FCD;strokeColor=#9673a6;" vertex="1" parent="1">
          <mxGeometry x="3104" y="2078" width="120" height="60" as="geometry" />
        </mxCell>
        <mxCell id="d9e7JUGaRQhJMEoOyAsT-28" value="Shell&amp;nbsp;" style="rounded=0;whiteSpace=wrap;html=1;shadow=0;fontSize=20;fillColor=#769FCD;strokeColor=#9673a6;" vertex="1" parent="1">
          <mxGeometry x="3274" y="2078" width="120" height="60" as="geometry" />
        </mxCell>
        <mxCell id="d9e7JUGaRQhJMEoOyAsT-29" value="Mysql" style="rounded=0;whiteSpace=wrap;html=1;shadow=0;fontSize=20;fillColor=#769FCD;strokeColor=#9673a6;" vertex="1" parent="1">
          <mxGeometry x="2524" y="2078" width="120" height="60" as="geometry" />
        </mxCell>
        <mxCell id="d9e7JUGaRQhJMEoOyAsT-30" value="支撑层" style="text;html=1;strokeColor=none;fillColor=none;align=center;verticalAlign=middle;whiteSpace=wrap;rounded=0;shadow=0;fontSize=20;" vertex="1" parent="1">
          <mxGeometry x="2334" y="2083" width="80" height="30" as="geometry" />
        </mxCell>
        <mxCell id="d9e7JUGaRQhJMEoOyAsT-31" value="WebSocket" style="rounded=0;whiteSpace=wrap;html=1;shadow=0;fontSize=20;fillColor=#769FCD;strokeColor=#82b366;" vertex="1" parent="1">
          <mxGeometry x="2844" y="1758" width="120" height="60" as="geometry" />
        </mxCell>
        <mxCell id="d9e7JUGaRQhJMEoOyAsT-32" value="Gorm" style="rounded=0;whiteSpace=wrap;html=1;shadow=0;fontSize=20;fillColor=#769FCD;strokeColor=#d79b00;" vertex="1" parent="1">
          <mxGeometry x="3004" y="1898" width="120" height="60" as="geometry" />
        </mxCell>
        <mxCell id="d9e7JUGaRQhJMEoOyAsT-33" value="etcd" style="rounded=0;whiteSpace=wrap;html=1;shadow=0;fontSize=20;fillColor=#769FCD;strokeColor=#9673a6;" vertex="1" parent="1">
          <mxGeometry x="2724" y="2078" width="120" height="60" as="geometry" />
        </mxCell>
        <mxCell id="d9e7JUGaRQhJMEoOyAsT-34" value="clinet-go" style="rounded=0;whiteSpace=wrap;html=1;shadow=0;fontSize=20;fillColor=#769FCD;strokeColor=#d79b00;" vertex="1" parent="1">
          <mxGeometry x="3214" y="1898" width="120" height="60" as="geometry" />
        </mxCell>
      </root>
    </mxGraphModel>
  </diagram>
</mxfile>
